# xmcd
#
# Track frame offsets: 
#        150
#        26847
#        45537
#        65183
#        82718
#        106909
#        127892
#        156730
#        172125
#        198352
#        216311
#        242312
#        258651
#        273171
#        284617
#
# Disc length: 3927 seconds
#
# Revision: 1
# Processed by: cddbd v1.5.2PL0 Copyright (c) Steve Scherf et al.
# Submitted via: ExactAudioCopyFreeDBPlugin 1.0
#
DISCID=de0f550f
DTITLE=NOX, Gerd Köster and Dirk Raulf - Gabelfrühstück {Poise,13 A-B} C
DTITLE=D2
DYEAR=2006
DGENRE=Jazz
TTITLE0=Vampirgefühl
TTITLE1=Oktober
TTITLE2=Perlentaucher
TTITLE3=Eine Frage der Zeit
TTITLE4=Fliegen
TTITLE5=Alles ist neu
TTITLE6=Nie getanzt
TTITLE7=Morgenmond
TTITLE8=Wenn die Nacht zu Ende geht
TTITLE9=Perlentaucher (Filmversion)
TTITLE10=As I Sat Sadly By Her Side
TTITLE11=Jazz (instr.)
TTITLE12=Die Nacht ist nicht allein zum Schlafen da
TTITLE13=Take the A-Train
TTITLE14=Morgenmond (Vorstadtversion)
EXTD=YEAR: 2006
EXTT0=
EXTT1=
EXTT2=
EXTT3=
EXTT4=
EXTT5=
EXTT6=
EXTT7=
EXTT8=
EXTT9=
EXTT10=
EXTT11=
EXTT12=
EXTT13=
EXTT14=
PLAYORDER=
